<svg width="40" height="41" viewBox="0 0 40 41" fill="none" xmlns="http://www.w3.org/2000/svg">
<rect y="0.323242" width="40" height="40" rx="20" fill="white" fill-opacity="0.05"/>
<path fill-rule="evenodd" clip-rule="evenodd" d="M14.0858 32.2384C12.6585 32.1735 11.8831 31.9359 11.3674 31.7348C10.6841 31.4687 10.1969 31.152 9.68407 30.6399C9.17122 30.1277 8.85381 29.6406 8.58918 28.9572C8.38803 28.4415 8.1505 27.6662 8.08559 26.2389C8.01427 24.6961 8 24.2331 8 20.3243C8 16.4155 8.01569 15.9533 8.08488 14.409C8.14979 12.9817 8.38874 12.2078 8.58846 11.6907C8.85452 11.0073 9.17193 10.5202 9.68336 10.0066C10.1955 9.49446 10.6827 9.17633 11.3667 8.9117C11.8824 8.71056 12.6578 8.47303 14.0851 8.40812C15.6286 8.33751 16.0923 8.32324 19.9996 8.32324C23.9085 8.32324 24.3707 8.33893 25.9149 8.40812C27.3422 8.47303 28.1161 8.71198 28.6333 8.9117C29.3166 9.17633 29.8038 9.49446 30.3166 10.0066C30.8295 10.5187 31.1455 11.0066 31.4115 11.69C31.6127 12.2057 31.8502 12.981 31.9151 14.4083C31.9857 15.9526 32 16.4148 32 20.3236C32 24.231 31.9857 24.6946 31.9151 26.2389C31.8502 27.6662 31.6113 28.4415 31.4115 28.9572C31.1455 29.6406 30.8288 30.1277 30.3166 30.6399C29.8045 31.152 29.3166 31.4687 28.6333 31.7348C28.1176 31.9359 27.3422 32.1735 25.9149 32.2384C24.3721 32.309 23.9085 32.3232 19.9996 32.3232C16.0923 32.3232 15.6286 32.3097 14.0858 32.2384ZM26.4505 13.4512C26.2572 13.1617 26.1541 12.8215 26.1543 12.4734C26.1547 12.0069 26.3402 11.5596 26.6702 11.2298C27.0001 10.8999 27.4475 10.7146 27.914 10.7144H27.9147C28.2628 10.7145 28.603 10.8178 28.8923 11.0113C29.1816 11.2048 29.407 11.4797 29.5401 11.8013C29.6732 12.1229 29.7079 12.4768 29.6398 12.8181C29.5718 13.1594 29.4041 13.4729 29.1579 13.7189C28.9117 13.965 28.598 14.1324 28.2566 14.2002C27.9153 14.268 27.5614 14.233 27.2399 14.0996C26.9184 13.9663 26.6437 13.7407 26.4505 13.4512ZM13.3684 20.2969C13.3684 16.5622 16.3838 13.5338 20.1045 13.5338C23.8251 13.5338 26.8421 16.5622 26.8421 20.2969C26.8421 24.0317 23.8251 27.0601 20.1045 27.0601C16.3838 27.0601 13.3684 24.0317 13.3684 20.2969Z" fill="white"/>
<path d="M20.098 15.4135C17.3984 15.4135 15.2105 17.6025 15.2105 20.3021C15.2105 23.0017 17.3984 25.1907 20.098 25.1907C22.7975 25.1907 24.9866 23.0017 24.9866 20.3021C24.9866 17.6025 22.7975 15.4135 20.098 15.4135Z" fill="white"/>
</svg>
