<svg width="173" height="48" viewBox="0 0 173 48" fill="none" xmlns="http://www.w3.org/2000/svg">
<path d="M59.3622 34.6207V14.2928H66.6222C67.7257 14.2928 68.7227 14.5687 69.6133 15.1205C70.5135 15.6722 71.225 16.4127 71.7477 17.342C72.2704 18.2713 72.5318 19.2925 72.5318 20.4057C72.5318 21.5479 72.2607 22.5837 71.7187 23.513C71.1863 24.4326 70.47 25.1682 69.5697 25.72C68.6695 26.2621 67.687 26.5331 66.6222 26.5331H62.9051V34.6207H59.3622ZM62.9051 22.9902H66.2447C66.748 22.9902 67.2078 22.8644 67.6241 22.6127C68.0403 22.3611 68.3694 22.0223 68.6114 21.5963C68.8631 21.1704 68.9889 20.6961 68.9889 20.1734C68.9889 19.641 68.8631 19.1618 68.6114 18.7359C68.3694 18.31 68.0403 17.9712 67.6241 17.7195C67.2078 17.4678 66.748 17.342 66.2447 17.342H62.9051V22.9902ZM85.1421 20.1008H88.6849V34.6207H85.1421L84.9824 32.8202C84.5855 33.4688 84.0579 33.9963 83.3997 34.4029C82.7511 34.7998 81.9816 34.9982 81.091 34.9982C80.0166 34.9982 79.0098 34.7949 78.0709 34.3884C77.1319 33.9818 76.3043 33.4204 75.588 32.7041C74.8814 31.9877 74.3248 31.1601 73.9182 30.2212C73.5213 29.2822 73.3229 28.2755 73.3229 27.201C73.3229 26.1653 73.5116 25.1924 73.8892 24.2825C74.2764 23.3726 74.8136 22.574 75.5009 21.8867C76.1881 21.1995 76.9819 20.6622 77.8821 20.275C78.7824 19.8878 79.7504 19.6942 80.7861 19.6942C81.7444 19.6942 82.6011 19.9072 83.3561 20.3331C84.1208 20.759 84.7694 21.3011 85.3018 21.9593L85.1421 20.1008ZM81.0039 31.586C81.7589 31.586 82.4269 31.3973 83.0077 31.0197C83.5885 30.6422 84.0434 30.134 84.3725 29.4952C84.7016 28.8466 84.8662 28.1351 84.8662 27.3607C84.8662 26.5767 84.7016 25.8652 84.3725 25.2263C84.0434 24.5778 83.5836 24.0647 82.9931 23.6872C82.4123 23.3097 81.7493 23.1209 81.0039 23.1209C80.2586 23.1209 79.5761 23.3145 78.9566 23.7017C78.3468 24.0792 77.8579 24.5874 77.4901 25.2263C77.1319 25.8652 76.9529 26.5767 76.9529 27.3607C76.9529 28.1448 77.1368 28.8563 77.5046 29.4952C77.8725 30.134 78.3613 30.6422 78.9711 31.0197C79.5906 31.3973 80.2682 31.586 81.0039 31.586ZM100.745 20.1008H104.505L96.5631 41.8806H92.8025L95.4306 34.6207L90.2034 20.1008H94.0802L97.202 29.771L100.745 20.1008ZM106.552 34.6207V14.2928H113.812C114.915 14.2928 115.912 14.5687 116.803 15.1205C117.703 15.6722 118.415 16.4127 118.937 17.342C119.46 18.2713 119.721 19.2925 119.721 20.4057C119.721 21.5479 119.45 22.5837 118.908 23.513C118.376 24.4326 117.66 25.1682 116.759 25.72C115.859 26.2621 114.877 26.5331 113.812 26.5331H110.095V34.6207H106.552ZM110.095 22.9902H113.434C113.938 22.9902 114.397 22.8644 114.814 22.6127C115.23 22.3611 115.559 22.0223 115.801 21.5963C116.053 21.1704 116.179 20.6961 116.179 20.1734C116.179 19.641 116.053 19.1618 115.801 18.7359C115.559 18.31 115.23 17.9712 114.814 17.7195C114.397 17.4678 113.938 17.342 113.434 17.342H110.095V22.9902ZM121.228 29.2483V20.1008H124.771V28.319C124.771 28.8902 124.912 29.4129 125.192 29.8872C125.473 30.3518 125.846 30.7245 126.31 31.0052C126.785 31.2763 127.302 31.4118 127.864 31.4118C128.445 31.4118 128.967 31.2763 129.432 31.0052C129.897 30.7245 130.269 30.3518 130.55 29.8872C130.831 29.4129 130.971 28.8902 130.971 28.319V20.1008H134.514L134.529 34.6207H130.986L130.971 33.2994C130.468 33.8221 129.873 34.2383 129.185 34.5481C128.498 34.8482 127.762 34.9982 126.978 34.9982C125.923 34.9982 124.96 34.7417 124.089 34.2286C123.218 33.7059 122.521 33.0138 121.998 32.1523C121.485 31.2811 121.228 30.3131 121.228 29.2483ZM137.52 34.6207V12.8408H141.063V34.6207H137.52ZM148.837 34.882C148.082 34.8336 147.351 34.6836 146.644 34.4319C145.947 34.1706 145.328 33.8172 144.785 33.372C144.243 32.9267 143.827 32.3943 143.537 31.7748L146.528 30.497C146.644 30.6906 146.833 30.8987 147.094 31.1214C147.356 31.3343 147.665 31.5134 148.023 31.6586C148.391 31.8038 148.793 31.8764 149.229 31.8764C149.596 31.8764 149.945 31.828 150.274 31.7312C150.613 31.6247 150.884 31.465 151.087 31.2521C151.3 31.0391 151.407 30.7632 151.407 30.4244C151.407 30.0663 151.281 29.7904 151.029 29.5968C150.787 29.3935 150.477 29.2435 150.1 29.1467C149.732 29.0402 149.374 28.9434 149.025 28.8563C148.106 28.6724 147.249 28.3868 146.455 27.9996C145.671 27.6124 145.037 27.1139 144.553 26.5041C144.079 25.8845 143.842 25.1392 143.842 24.268C143.842 23.3097 144.093 22.482 144.597 21.7851C145.11 21.0881 145.773 20.5509 146.586 20.1734C147.409 19.7959 148.294 19.6071 149.243 19.6071C150.395 19.6071 151.45 19.8491 152.408 20.3331C153.376 20.8074 154.141 21.4802 154.703 22.3514L151.9 24.0066C151.765 23.7743 151.576 23.5614 151.334 23.3678C151.092 23.1645 150.816 22.9999 150.506 22.8741C150.197 22.7386 149.872 22.6611 149.533 22.6418C149.098 22.6224 148.701 22.6611 148.343 22.7579C147.985 22.8547 147.694 23.0193 147.472 23.2516C147.259 23.4839 147.152 23.7937 147.152 24.1809C147.152 24.5487 147.297 24.8246 147.588 25.0085C147.878 25.1827 148.227 25.3183 148.633 25.4151C149.05 25.5119 149.446 25.6183 149.824 25.7345C150.676 26.0152 151.474 26.3589 152.22 26.7654C152.975 27.172 153.58 27.6705 154.035 28.261C154.49 28.8514 154.707 29.5581 154.688 30.3809C154.688 31.3198 154.407 32.1426 153.846 32.8493C153.284 33.5462 152.558 34.0786 151.668 34.4464C150.787 34.8143 149.843 34.9595 148.837 34.882ZM163.335 34.9982C161.999 34.9982 160.779 34.6546 159.676 33.9673C158.582 33.28 157.706 32.3556 157.048 31.194C156.399 30.0324 156.075 28.7498 156.075 27.3462C156.075 26.2911 156.264 25.3037 156.641 24.3842C157.019 23.4549 157.537 22.6418 158.195 21.9448C158.863 21.2382 159.637 20.6864 160.518 20.2895C161.399 19.8927 162.338 19.6942 163.335 19.6942C164.467 19.6942 165.503 19.9362 166.442 20.4202C167.391 20.8945 168.194 21.5479 168.852 22.3804C169.511 23.2129 169.99 24.1615 170.29 25.2263C170.59 26.2911 170.658 27.4043 170.493 28.5659H159.879C160.015 29.108 160.237 29.5968 160.547 30.0324C160.857 30.4583 161.249 30.8019 161.723 31.0633C162.197 31.315 162.735 31.4457 163.335 31.4553C163.954 31.465 164.516 31.3198 165.019 31.0197C165.532 30.71 165.958 30.2938 166.297 29.771L169.912 30.6132C169.322 31.9006 168.441 32.9557 167.27 33.7785C166.099 34.5916 164.787 34.9982 163.335 34.9982ZM159.763 25.9087H166.907C166.8 25.3279 166.573 24.8052 166.224 24.3406C165.886 23.8663 165.464 23.4888 164.961 23.208C164.458 22.9273 163.916 22.787 163.335 22.787C162.754 22.787 162.217 22.9273 161.723 23.208C161.23 23.4791 160.808 23.8518 160.46 24.3261C160.121 24.7907 159.889 25.3183 159.763 25.9087Z" fill="#1D1E25"/>
<circle cx="23.7568" cy="23.7568" r="23.7568" fill="#FEAE37"/>
<path d="M26.7746 23.7334C26.7746 20.2553 27.6604 17.7399 29.4319 16.1871C31.25 14.6344 34.1637 13.858 38.1729 13.858H39.5947V22.662C39.5947 29.8822 37.528 34.5094 33.3945 36.5435C31.9493 37.2577 30.2166 37.6149 28.1965 37.6149H26.7746V23.7334ZM21.2736 37.6149C17.3732 37.6149 14.4673 36.2562 12.5559 33.5389C10.7844 31.0235 9.89867 27.3979 9.89867 22.662V13.858H11.3205C15.3297 13.858 18.2434 14.6344 20.0615 16.1871C21.833 17.7399 22.7188 20.2553 22.7188 23.7334V37.6149H21.2736Z" fill="white"/>
</svg>
