<svg width="208" height="59" viewBox="0 0 208 59" fill="none" xmlns="http://www.w3.org/2000/svg">
<path d="M71.7294 41.3232V16.7604H80.5018C81.8353 16.7604 83.04 17.0938 84.1161 17.7605C85.2039 18.4272 86.0636 19.322 86.6952 20.4448C87.3268 21.5677 87.6426 22.8017 87.6426 24.1468C87.6426 25.527 87.3151 26.7785 86.6601 27.9014C86.0168 29.0126 85.1512 29.9015 84.0635 30.5682C82.9757 31.2232 81.7885 31.5507 80.5018 31.5507H76.0104V41.3232H71.7294ZM76.0104 27.2698H80.0457C80.6539 27.2698 81.2095 27.1177 81.7124 26.8136C82.2154 26.5095 82.6131 26.1001 82.9055 25.5855C83.2096 25.0708 83.3617 24.4977 83.3617 23.8661C83.3617 23.2228 83.2096 22.6438 82.9055 22.1292C82.6131 21.6145 82.2154 21.2051 81.7124 20.901C81.2095 20.5969 80.6539 20.4448 80.0457 20.4448H76.0104V27.2698ZM102.88 23.7784H107.161V41.3232H102.88L102.687 39.1477C102.208 39.9313 101.57 40.5688 100.775 41.0601C99.991 41.5396 99.0611 41.7794 97.985 41.7794C96.6867 41.7794 95.4703 41.5338 94.3357 41.0425C93.2011 40.5513 92.2011 39.8729 91.3355 39.0073C90.4817 38.1418 89.8091 37.1417 89.3179 36.0071C88.8383 34.8726 88.5985 33.6561 88.5985 32.3578C88.5985 31.1063 88.8266 29.9308 89.2828 28.8313C89.7506 27.7318 90.3998 26.7668 91.2303 25.9364C92.0607 25.1059 93.0198 24.4568 94.1076 23.9889C95.1954 23.521 96.3651 23.2871 97.6166 23.2871C98.7746 23.2871 99.8097 23.5444 100.722 24.0591C101.646 24.5737 102.43 25.2287 103.073 26.0241L102.88 23.7784ZM97.8798 37.6564C98.7921 37.6564 99.5992 37.4283 100.301 36.9721C101.003 36.5159 101.552 35.9019 101.95 35.1299C102.348 34.3462 102.547 33.4865 102.547 32.5508C102.547 31.6034 102.348 30.7437 101.95 29.9717C101.552 29.188 100.997 28.5681 100.283 28.112C99.5816 27.6558 98.7804 27.4277 97.8798 27.4277C96.9791 27.4277 96.1545 27.6616 95.4059 28.1295C94.6691 28.5857 94.0784 29.1997 93.6339 29.9717C93.2011 30.7437 92.9847 31.6034 92.9847 32.5508C92.9847 33.4982 93.207 34.3579 93.6515 35.1299C94.0959 35.9019 94.6866 36.5159 95.4235 36.9721C96.1721 37.4283 96.9908 37.6564 97.8798 37.6564ZM121.733 23.7784H126.278L116.68 50.0957H112.136L115.312 41.3232L108.996 23.7784H113.68L117.452 35.4633L121.733 23.7784ZM128.75 41.3232V16.7604H137.523C138.856 16.7604 140.061 17.0938 141.137 17.7605C142.225 18.4272 143.084 19.322 143.716 20.4448C144.348 21.5677 144.663 22.8017 144.663 24.1468C144.663 25.527 144.336 26.7785 143.681 27.9014C143.038 29.0126 142.172 29.9015 141.084 30.5682C139.997 31.2232 138.809 31.5507 137.523 31.5507H133.031V41.3232H128.75ZM133.031 27.2698H137.067C137.675 27.2698 138.23 27.1177 138.733 26.8136C139.236 26.5095 139.634 26.1001 139.926 25.5855C140.23 25.0708 140.382 24.4977 140.382 23.8661C140.382 23.2228 140.23 22.6438 139.926 22.1292C139.634 21.6145 139.236 21.2051 138.733 20.901C138.23 20.5969 137.675 20.4448 137.067 20.4448H133.031V27.2698ZM146.484 34.8316V23.7784H150.765V33.7088C150.765 34.3989 150.935 35.0305 151.274 35.6036C151.613 36.165 152.064 36.6154 152.625 36.9546C153.198 37.2821 153.824 37.4458 154.502 37.4458C155.204 37.4458 155.836 37.2821 156.397 36.9546C156.959 36.6154 157.409 36.165 157.748 35.6036C158.087 35.0305 158.257 34.3989 158.257 33.7088V23.7784H162.538L162.555 41.3232H158.274L158.257 39.7267C157.649 40.3583 156.929 40.8612 156.099 41.2355C155.268 41.5981 154.379 41.7794 153.432 41.7794C152.157 41.7794 150.993 41.4694 149.941 40.8495C148.888 40.2179 148.046 39.3816 147.414 38.3406C146.794 37.2879 146.484 36.1183 146.484 34.8316ZM166.17 41.3232V15.0059H170.451V41.3232H166.17ZM179.844 41.639C178.932 41.5806 178.049 41.3993 177.195 41.0952C176.353 40.7794 175.604 40.3524 174.949 39.8144C174.294 39.2763 173.791 38.633 173.44 37.8844L177.055 36.3405C177.195 36.5744 177.423 36.8259 177.739 37.0949C178.055 37.3523 178.429 37.5686 178.862 37.7441C179.306 37.9195 179.792 38.0073 180.318 38.0073C180.762 38.0073 181.183 37.9488 181.581 37.8318C181.991 37.7032 182.318 37.5102 182.564 37.2528C182.821 36.9955 182.95 36.6622 182.95 36.2528C182.95 35.82 182.798 35.4866 182.493 35.2527C182.201 35.0071 181.827 34.8258 181.371 34.7088C180.926 34.5802 180.493 34.4632 180.072 34.3579C178.961 34.1357 177.926 33.7906 176.967 33.3228C176.019 32.8549 175.253 32.2525 174.668 31.5157C174.095 30.7671 173.809 29.8664 173.809 28.8137C173.809 27.6558 174.113 26.6557 174.721 25.8136C175.341 24.9714 176.142 24.3223 177.125 23.8661C178.119 23.4099 179.189 23.1818 180.335 23.1818C181.727 23.1818 183.002 23.4743 184.16 24.0591C185.33 24.6322 186.254 25.4451 186.932 26.4978L183.546 28.4979C183.382 28.2172 183.154 27.9599 182.862 27.726C182.57 27.4803 182.236 27.2815 181.862 27.1294C181.488 26.9657 181.096 26.8721 180.686 26.8487C180.16 26.8253 179.68 26.8721 179.248 26.9891C178.815 27.106 178.464 27.3049 178.195 27.5856C177.938 27.8663 177.809 28.2406 177.809 28.7085C177.809 29.1529 177.984 29.4863 178.335 29.7085C178.686 29.9191 179.107 30.0828 179.599 30.1998C180.102 30.3168 180.581 30.4454 181.037 30.5858C182.067 30.925 183.032 31.3402 183.932 31.8315C184.844 32.3227 185.576 32.9251 186.125 33.6386C186.675 34.3521 186.938 35.2059 186.915 36.2001C186.915 37.3347 186.576 38.3289 185.897 39.1828C185.219 40.0249 184.342 40.6682 183.265 41.1127C182.201 41.5572 181.061 41.7326 179.844 41.639ZM197.363 41.7794C195.749 41.7794 194.275 41.3642 192.942 40.5337C191.62 39.7033 190.561 38.5862 189.766 37.1827C188.982 35.7791 188.591 34.2293 188.591 32.5333C188.591 31.2583 188.819 30.0653 189.275 28.9541C189.731 27.8312 190.357 26.8487 191.152 26.0066C191.959 25.1527 192.895 24.486 193.959 24.0065C195.024 23.5269 196.158 23.2871 197.363 23.2871C198.732 23.2871 199.983 23.5795 201.118 24.1644C202.264 24.7375 203.235 25.527 204.03 26.5329C204.825 27.5388 205.404 28.6851 205.767 29.9717C206.13 31.2583 206.211 32.6034 206.013 34.007H193.187C193.351 34.662 193.62 35.2527 193.994 35.7791C194.369 36.2937 194.842 36.7089 195.416 37.0247C195.989 37.3289 196.638 37.4868 197.363 37.4985C198.112 37.5102 198.79 37.3347 199.398 36.9721C200.018 36.5978 200.533 36.0949 200.942 35.4633L205.311 36.4809C204.597 38.0365 203.533 39.3114 202.118 40.3056C200.702 41.2882 199.118 41.7794 197.363 41.7794ZM193.047 30.7963H201.679C201.55 30.0945 201.276 29.4629 200.854 28.9015C200.445 28.3283 199.936 27.8722 199.328 27.533C198.72 27.1938 198.065 27.0242 197.363 27.0242C196.661 27.0242 196.012 27.1938 195.416 27.533C194.819 27.8605 194.31 28.3108 193.889 28.8839C193.48 29.4454 193.199 30.0828 193.047 30.7963Z" fill="white"/>
<circle cx="28.7062" cy="29.0294" r="28.7062" fill="#FEAE37"/>
<path d="M32.3529 29.0011C32.3529 24.7984 33.4232 21.7589 35.5638 19.8827C37.7607 18.0065 41.2813 17.0684 46.1258 17.0684H47.8439V27.7065C47.8439 36.431 45.3466 42.0221 40.3519 44.48C38.6056 45.343 36.512 45.7745 34.071 45.7745H32.3529V29.0011ZM25.7059 45.7745C20.9929 45.7745 17.4816 44.1329 15.172 40.8495C13.0314 37.81 11.9612 33.429 11.9612 27.7065V17.0684H13.6792C18.5237 17.0684 22.0444 18.0065 24.2413 19.8827C26.3818 21.7589 27.4521 24.7984 27.4521 29.0011V45.7745H25.7059Z" fill="white"/>
</svg>
