<svg width="40" height="41" viewBox="0 0 40 41" fill="none" xmlns="http://www.w3.org/2000/svg">
<rect y="0.323242" width="40" height="40" rx="20" fill="#FFFAF3"/>
<path d="M15.5478 30.3232C24.6048 30.3232 29.5578 22.6294 29.5578 15.9576C29.5578 15.7391 29.5534 15.5216 29.5438 15.305C30.5075 14.59 31.3393 13.7047 32 12.6905C31.1177 13.0927 30.1683 13.3634 29.1723 13.4855C30.1889 12.8604 30.9694 11.8716 31.3376 10.6929C30.371 11.2808 29.3136 11.6953 28.2109 11.9184C27.3123 10.937 26.0331 10.3232 24.6166 10.3232C21.8974 10.3232 19.6923 12.5843 19.6923 15.3715C19.6923 15.7677 19.7356 16.153 19.8201 16.5227C15.7277 16.3116 12.0988 14.3025 9.67015 11.2475C9.23273 12.0181 9.00265 12.8938 9.00341 13.7852C9.00341 15.5369 9.87268 17.0833 11.1946 17.988C10.4127 17.9635 9.6479 17.7469 8.96459 17.3565C8.96385 17.3777 8.96385 17.3983 8.96385 17.421C8.96385 19.8661 10.6611 21.9077 12.9142 22.3703C12.491 22.4885 12.0544 22.5482 11.6158 22.5479C11.2991 22.5479 10.9904 22.516 10.6904 22.4569C11.3173 24.463 13.135 25.9229 15.2902 25.9637C13.6049 27.3181 11.4819 28.1249 9.17454 28.1249C8.78202 28.1252 8.38983 28.1019 8 28.0549C10.1792 29.4872 12.7666 30.3232 15.5478 30.3232Z" fill="#FEAE37"/>
</svg>
